<svg width="370" height="181" viewBox="0 0 370 181" fill="none" xmlns="http://www.w3.org/2000/svg">
<path d="M340.49 142.257H359.572L349.937 107.907C348.728 103.611 345.057 100.441 340.656 99.8987L273.668 91.4314L246.389 49.1569C243.865 45.2361 239.527 42.8794 234.877 42.8794H163.404V158.753H206.701C206.346 158.211 206.179 157.544 206.221 156.856C207.952 130.89 229.621 110.285 256.003 110.285C282.386 110.285 304.076 130.89 305.807 156.856C305.848 157.565 305.661 158.211 305.327 158.753H336.736C336.569 158.357 336.485 157.877 336.485 157.419V146.282C336.485 144.05 338.279 142.257 340.51 142.257H340.49ZM255.044 91.6608H203.551C201.174 91.6608 199.255 89.742 199.255 87.3645V53.6201C199.255 51.2425 201.174 49.3238 203.551 49.3238H233.438C234.897 49.3238 236.274 50.0746 237.066 51.3259L258.715 85.0495C260.529 87.9067 258.485 91.6816 255.065 91.6816L255.044 91.6608Z" fill="#F09A34"/>
<path d="M278.551 158.298C278.551 152.444 276.225 146.829 272.086 142.689C267.946 138.55 262.332 136.224 256.477 136.224C250.623 136.224 245.008 138.55 240.869 142.689C236.729 146.829 234.403 152.444 234.403 158.298L256.477 158.298H278.551Z" fill="#F09A34"/>
<path d="M367.08 144.947H342.137C340.531 144.947 339.217 146.261 339.217 147.867V155.813C339.217 157.418 340.531 158.732 342.137 158.732H367.08C368.686 158.732 370 157.418 370 155.813V147.867C370 146.261 368.686 144.947 367.08 144.947Z" fill="#F09A34"/>
<path d="M163.383 16.3506V37.5399H235.46C235.46 37.5399 225.888 16.3506 163.383 16.3506Z" fill="#F09A34"/>
<path d="M157.877 0H146.844V158.753H157.877V0Z" fill="#F09A34"/>
<path d="M255.982 115.54C233.145 115.54 214.375 133.392 212.873 155.854C212.769 157.418 213.979 158.753 215.543 158.753H225.053C226.43 158.753 227.598 157.71 227.702 156.355C228.932 141.839 241.133 130.368 255.982 130.368C270.831 130.368 283.053 141.839 284.283 156.355C284.387 157.71 285.555 158.753 286.911 158.753H296.442C298.006 158.753 299.216 157.418 299.112 155.854C297.61 133.392 278.861 115.54 255.982 115.54Z" fill="#F09A34"/>
<path d="M0 16.3506L116.666 44.8185H17.2476L116.666 73.3074H36.1428L116.666 101.775H56.6648L116.666 130.264H76.4151L140.859 158.753V16.3506H0Z" fill="#F09A34"/>
</svg>
