<svg width="154" height="39" viewBox="0 0 154 39" fill="none" xmlns="http://www.w3.org/2000/svg">
<path d="M147.432 32.3083H151.291L149.342 25.1696C149.098 24.2767 148.355 23.6179 147.465 23.5052L133.918 21.7455L128.401 12.9598C127.89 12.1449 127.013 11.6551 126.072 11.6551H111.618V35.7367H120.374C120.302 35.624 120.269 35.4853 120.277 35.3423C120.627 29.946 125.01 25.6637 130.345 25.6637C135.681 25.6637 140.067 29.946 140.417 35.3423C140.426 35.4897 140.388 35.624 140.32 35.7367H146.673C146.639 35.6544 146.622 35.5547 146.622 35.4593V33.1448C146.622 32.681 146.985 32.3083 147.436 32.3083H147.432ZM130.151 21.7931H119.737C119.256 21.7931 118.868 21.3944 118.868 20.9003V13.8873C118.868 13.3932 119.256 12.9944 119.737 12.9944H125.781C126.077 12.9944 126.355 13.1505 126.515 13.4105L130.893 20.4192C131.26 21.013 130.847 21.7975 130.155 21.7975L130.151 21.7931Z" fill="#F78E2D"/>
<path d="M134.905 35.6421C134.905 34.4254 134.435 33.2586 133.598 32.3982C132.761 31.5379 131.625 31.0546 130.441 31.0546C129.257 31.0546 128.122 31.5379 127.284 32.3982C126.447 33.2586 125.977 34.4254 125.977 35.6421L130.441 35.6421H134.905Z" fill="#F78E2D"/>
<path d="M152.809 32.8674H147.765C147.44 32.8674 147.174 33.1404 147.174 33.4742V35.1256C147.174 35.4593 147.44 35.7324 147.765 35.7324H152.809C153.134 35.7324 153.4 35.4593 153.4 35.1256V33.4742C153.4 33.1404 153.134 32.8674 152.809 32.8674Z" fill="#F78E2D"/>
<path d="M111.614 6.14186V10.5455H126.19C126.19 10.5455 124.254 6.14186 111.614 6.14186Z" fill="#F78E2D"/>
<path d="M110.5 2.74374H108.269V35.7367H110.5V2.74374Z" fill="#F78E2D"/>
<path d="M130.341 26.756C125.722 26.756 121.926 30.4662 121.622 35.1342C121.601 35.4593 121.846 35.7367 122.162 35.7367H124.086C124.364 35.7367 124.6 35.52 124.621 35.2383C124.87 32.2216 127.338 29.8377 130.341 29.8377C133.344 29.8377 135.816 32.2216 136.064 35.2383C136.086 35.52 136.322 35.7367 136.596 35.7367H138.524C138.84 35.7367 139.084 35.4593 139.063 35.1342C138.76 30.4662 134.968 26.756 130.341 26.756Z" fill="#F78E2D"/>
<path d="M78.5707 6.14186L102.165 12.0582H82.0589L102.165 17.9789H85.8803L102.165 23.8953H90.0306L102.165 29.816H94.025L107.058 35.7367V6.14186H78.5707Z" fill="#F78E2D"/>
<path d="M6.63075 20.3776H1.33383L0 6.23577H4.53885L4.69238 16.1929H4.8843L9.0681 6.23577H13.6837L6.63075 20.3776Z" fill="#F78E2D"/>
<path d="M13.0408 20.3776L15.9867 6.23577H22.1569C24.7766 6.23577 26.6957 8.03903 26.6957 10.4597C26.6957 12.4492 25.525 14.4092 23.5579 15.2423L25.3811 20.3776H21.015L19.518 15.6343H18.0978L17.1094 20.3776H13.0408ZM19.4221 9.30327L18.6832 12.7922H20.4008C21.7634 12.7922 22.6175 11.9592 22.6175 10.8027C22.6175 9.80309 22.0033 9.30327 20.8806 9.30327H19.4221Z" fill="#F78E2D"/>
<path d="M36.0613 20.3776H32.0023L34.9482 6.23577H44.6688L43.9779 9.52868H38.3259L37.7598 12.2532H42.884L42.2219 15.3697H37.1073L36.0613 20.3776Z" fill="#F78E2D"/>
<path d="M47.1637 20.5344C45.3789 20.5344 44.0355 19.2702 44.0355 17.5551C44.0355 15.2717 45.9259 13.831 48.9965 13.7624L51.3187 13.7134L51.4531 13.0764C51.4819 12.9098 51.4915 12.8412 51.4915 12.7824C51.4915 12.2924 50.9733 11.9592 50.2056 11.9592C49.5435 11.9592 49.0445 12.1944 48.8238 12.6158H45.2925C45.7244 10.4695 47.7587 9.08766 50.4839 9.08766C53.3627 9.08766 55.3202 10.4499 55.3202 12.459C55.3202 12.7334 55.2818 13.1254 55.2339 13.341L53.7657 20.3776H49.9465L50.2152 19.084H50.0233C49.5243 19.966 48.3728 20.5344 47.1637 20.5344ZM49.0061 17.8295C49.8314 17.8295 50.5703 17.2905 50.7238 16.5653L50.8677 15.8695L49.246 15.9087C48.3824 15.9283 47.8163 16.3399 47.8163 16.9573C47.8163 17.4767 48.3056 17.8295 49.0061 17.8295Z" fill="#F78E2D"/>
<path d="M57.5945 12.8706C57.5945 10.5675 59.504 9.08766 62.4883 9.08766C65.4247 9.08766 67.3535 10.4793 67.3535 12.5766H63.8606C63.803 12.0768 63.2464 11.7239 62.5075 11.7239C61.7974 11.7239 61.3177 12.0278 61.3177 12.4688C61.3177 12.8118 61.5384 12.998 62.2101 13.243L64.2444 13.9878C65.9429 14.615 66.6817 15.4677 66.6817 16.8201C66.6817 19.1526 64.6954 20.652 61.6055 20.652C58.4581 20.652 56.3566 19.2016 56.3566 17.0357H60.0414C60.0894 17.6041 60.7323 18.0255 61.548 18.0255C62.3252 18.0255 62.7762 17.7609 62.7762 17.2905C62.7762 16.9769 62.5747 16.8103 61.903 16.5653L60.1757 15.9283C58.4197 15.2815 57.5945 14.3014 57.5945 12.8706Z" fill="#F78E2D"/>
<path d="M73.111 20.3776C70.9519 20.3776 69.5797 19.4368 69.5797 17.9471C69.5797 17.6727 69.6181 17.3199 69.6853 16.9965L70.6065 12.4884H68.9464L69.5797 9.55808H71.2206L71.7772 6.94139H75.7115L75.1549 9.55808H77.3236L76.6902 12.4884H74.5504L73.7347 16.3987C73.7155 16.5359 73.6963 16.6731 73.6963 16.7613C73.6963 17.3101 74.0322 17.5649 74.7327 17.5649C75.0494 17.5649 75.4332 17.5355 75.6731 17.4963L75.1069 20.2208C74.7711 20.3188 74.013 20.3776 73.111 20.3776Z" fill="#F78E2D"/>
<path d="M6.25252 34.8771L5.98067 36.2447H0L2.03555 26.6644H3.54066L1.77696 34.8771H6.25252Z" fill="#F78E2D"/>
<path d="M11.4839 28.8753C13.2941 28.8753 14.5141 30.1035 14.5141 31.9359C14.5141 34.4986 12.8631 36.3842 10.6154 36.3842C8.79861 36.3842 7.56535 35.1493 7.56535 33.3169C7.56535 30.7409 9.20307 28.8753 11.4839 28.8753ZM10.748 35.1094C11.9945 35.1094 13.0089 33.7683 13.0089 32.1351C13.0089 30.8936 12.3923 30.1434 11.3779 30.1434C10.0186 30.1434 9.07046 31.4181 9.07046 33.2173C9.07046 34.3659 9.7335 35.1094 10.748 35.1094Z" fill="#F78E2D"/>
<path d="M18.2337 39C16.4634 39 15.25 38.0506 15.197 36.8821H16.6623C16.7419 37.4066 17.3453 37.8315 18.3398 37.8315C19.5267 37.8315 20.1632 37.2473 20.3687 36.3775L20.6737 35.0696L20.561 35.063C20.0571 35.7734 19.3145 36.1252 18.3995 36.1252C16.9474 36.1252 15.8269 34.9833 15.8269 33.3036C15.8269 30.7475 17.385 28.8952 19.4073 28.8952C20.4152 28.8952 21.3302 29.4794 21.6086 30.316H21.7147L21.9932 29.0147H23.379L21.7611 36.5701C21.4429 38.0639 20.1698 39 18.2337 39ZM18.9299 34.9302C20.256 34.9302 21.2838 33.7086 21.2838 31.9824C21.2838 30.8869 20.6207 30.1898 19.593 30.1898C18.2735 30.1898 17.3055 31.3517 17.3055 33.0978C17.3055 34.2397 17.9354 34.9302 18.9299 34.9302Z" fill="#F78E2D"/>
<path d="M26.6478 27.7599C26.1505 27.7599 25.746 27.3416 25.746 26.8304C25.746 26.3126 26.1505 25.8943 26.6478 25.8943C27.1451 25.8943 27.5495 26.3126 27.5495 26.8304C27.5495 27.3416 27.1451 27.7599 26.6478 27.7599ZM23.9625 36.2447L25.4941 29.0147H26.913L25.388 36.2447H23.9625Z" fill="#F78E2D"/>
<path d="M28.385 31.1127C28.385 29.7716 29.5652 28.8753 31.1896 28.8753C32.8008 28.8753 33.8418 29.6985 33.9943 30.9268H32.6351C32.5091 30.3824 31.9521 30.0371 31.1764 30.0371C30.3675 30.0371 29.7906 30.4288 29.7906 30.9666C29.7906 31.3583 30.1023 31.6305 30.7189 31.8297L31.7665 32.1882C32.96 32.5799 33.4705 33.1642 33.4705 34.1202C33.4705 35.448 32.2174 36.3842 30.4736 36.3842C28.7961 36.3842 27.6158 35.5211 27.5296 34.2464H28.9486C29.1011 34.8173 29.6779 35.229 30.5133 35.229C31.4018 35.229 32.0185 34.8306 32.0185 34.2596C32.0185 33.8878 31.8063 33.609 31.1764 33.4032L30.0625 33.0314C28.9353 32.653 28.385 32.0687 28.385 31.1127Z" fill="#F78E2D"/>
<path d="M37.3825 36.2846C36.3017 36.2846 35.5392 35.7667 35.5392 34.7908C35.5392 34.6049 35.5657 34.3924 35.6122 34.1667L36.4609 30.2496H35.274L35.5127 29.0479H36.7062L37.0841 27.2155H38.5296L38.1384 29.0479H39.7363L39.4843 30.2496H37.8997L37.1305 33.8015C37.0841 34.014 37.0576 34.1999 37.0576 34.3526C37.0576 34.8505 37.3759 35.063 37.9262 35.063C38.1384 35.063 38.2975 35.0563 38.45 35.0364L38.2113 36.2115C38.0057 36.2647 37.7007 36.2846 37.3825 36.2846Z" fill="#F78E2D"/>
<path d="M42.6139 27.7599C42.1166 27.7599 41.7122 27.3416 41.7122 26.8304C41.7122 26.3126 42.1166 25.8943 42.6139 25.8943C43.1112 25.8943 43.5157 26.3126 43.5157 26.8304C43.5157 27.3416 43.1112 27.7599 42.6139 27.7599ZM39.9286 36.2447L41.4602 29.0147H42.8791L41.3541 36.2447H39.9286Z" fill="#F78E2D"/>
<path d="M47.7326 28.8753C49.2775 28.8753 50.3914 29.8579 50.5705 31.0463C50.5837 31.1459 50.5903 31.2521 50.5903 31.3517H49.1847C49.125 30.6347 48.4686 30.15 47.6265 30.15C46.2938 30.15 45.3258 31.4646 45.3258 33.1775C45.3258 34.4123 45.9888 35.1028 46.9701 35.1028C47.7923 35.1028 48.4156 34.7111 48.6741 34.0073H50.0997C49.8212 35.3883 48.5614 36.3842 46.864 36.3842C45.0473 36.3842 43.8604 35.1758 43.8604 33.3302C43.8604 30.7807 45.465 28.8753 47.7326 28.8753Z" fill="#F78E2D"/>
<path d="M52.0557 31.1127C52.0557 29.7716 53.2359 28.8753 54.8604 28.8753C56.4716 28.8753 57.5125 29.6985 57.665 30.9268H56.3058C56.1798 30.3824 55.6229 30.0371 54.8471 30.0371C54.0382 30.0371 53.4613 30.4288 53.4613 30.9666C53.4613 31.3583 53.773 31.6305 54.3896 31.8297L55.4372 32.1882C56.6307 32.5799 57.1412 33.1642 57.1412 34.1202C57.1412 35.448 55.8881 36.3842 54.1443 36.3842C52.4668 36.3842 51.2865 35.5211 51.2003 34.2464H52.6193C52.7718 34.8173 53.3486 35.229 54.1841 35.229C55.0725 35.229 55.6892 34.8306 55.6892 34.2596C55.6892 33.8878 55.477 33.609 54.8471 33.4032L53.7332 33.0314C52.606 32.653 52.0557 32.0687 52.0557 31.1127Z" fill="#F78E2D"/>
</svg>
