<svg width="20" height="21" viewBox="0 0 20 21" fill="none" xmlns="http://www.w3.org/2000/svg">
<path d="M18.6759 10.523C18.6697 9.62967 17.4554 8.92834 15.9618 8.92834H12.8524C12.4267 8.92834 12.2704 8.85469 12.0162 8.5695L6.87672 3.01691C6.71351 2.83506 6.51651 2.74414 6.2892 2.74414H5.32435C5.12598 2.74414 5.01096 2.91978 5.11083 3.13193L7.76384 8.92289L3.88062 9.36102L2.49555 6.87952C2.39432 6.68873 2.2249 6.60538 1.97895 6.60538H1.64086C1.43704 6.60538 1.30005 6.74101 1.30005 6.94483V14.1012C1.30005 14.3036 1.43704 14.4344 1.64086 14.4344H1.97895C2.2249 14.4344 2.39432 14.3497 2.49555 14.1665L3.88062 11.685L7.76384 12.1218L5.11083 17.9127C5.01096 18.1186 5.12598 18.3019 5.32435 18.3019H6.2892C6.51651 18.3019 6.71351 18.2047 6.87672 18.0291L12.0162 12.4689C12.2704 12.19 12.4267 12.1177 12.8524 12.1177H15.9618C17.4554 12.1177 18.6697 11.4101 18.6759 10.523Z" fill="#4848F7"/>
</svg>
