<svg width="26" height="26" viewBox="0 0 26 26" fill="none" xmlns="http://www.w3.org/2000/svg">
<path d="M13 2.59961C10.1281 2.59961 7.80002 4.92773 7.80002 7.79961C7.80002 10.6715 10.1281 12.9996 13 12.9996C15.8719 12.9996 18.2 10.6715 18.2 7.79961C18.2 4.92773 15.8719 2.59961 13 2.59961ZM6.51137 14.2996C5.07412 14.2996 3.90002 15.4525 3.90002 16.8996C3.90002 19.0982 4.98268 20.7558 6.67552 21.8352C8.34208 22.8978 10.5889 23.3996 13 23.3996C15.4112 23.3996 17.658 22.8978 19.3245 21.8352C21.0174 20.7558 22.1 19.0982 22.1 16.8996C22.1 15.4639 20.9359 14.2996 19.5001 14.2996L6.51137 14.2996Z" fill="#4848F7"/>
</svg>
