<svg width="42" height="42" viewBox="0 0 42 42" fill="none" xmlns="http://www.w3.org/2000/svg">
<g filter="url(#filter0_d_141_7826)">
<path d="M32.3958 24.6314V14.195L9.60417 11.3687V21.805C9.60412 22.0442 9.72248 22.2833 9.95916 22.4199L22.6358 29.7957C22.8676 29.9296 23.1307 30 23.3984 30C23.6662 30 23.9292 29.9296 24.1611 29.7957L32.0408 25.2463C32.2775 25.1097 32.3958 24.8705 32.3958 24.6314Z" fill="url(#paint0_linear_141_7826)"/>
<path d="M9.95939 10.7537L17.8392 6.20436C18.071 6.07048 18.3341 6 18.6018 6C18.8695 6 19.1326 6.07048 19.3644 6.20436L32.041 13.5801C32.5144 13.8534 32.5144 14.5365 32.041 14.8098L24.1612 19.3592C23.9294 19.4931 23.6663 19.5635 23.3986 19.5635C23.1308 19.5635 22.8678 19.4931 22.6359 19.3592L9.95939 11.9834C9.48609 11.7102 9.48609 11.027 9.95939 10.7537Z" fill="#7A7AFF"/>
<path d="M16.6271 25.5347L17.4502 26.01V17.1541L16.6271 16.6789V25.5347ZM21.5661 19.5304V28.3862L22.476 28.9116V20.0558L21.5661 19.5304ZM18.2734 17.6294V26.4852L19.0965 26.9605V18.1046L18.2734 17.6294ZM14.9807 24.5842L15.8039 25.0595V16.2036L14.9807 15.7283V24.5842ZM19.9197 18.5799V27.4357L20.7429 27.911V19.0551L19.9197 18.5799ZM14.1576 15.2531L13.3727 14.7999V23.6558L14.1576 24.109V15.2531ZM10.8769 13.3474L10.092 12.8943V21.7501L10.8769 22.2033V13.3474ZM11.6881 22.6568L12.5113 23.132V14.2762L11.6881 13.8009V22.6568Z" fill="#4747FF"/>
<path d="M10.8649 13.3257L10.0801 12.8726V21.7285L10.8649 22.1816V13.3257Z" fill="#4747FF"/>
<path d="M28.0292 17.8886L24.2903 20.056V28.9118L28.0292 26.7444V17.8886ZM28.3845 17.683V26.5388L31.7682 24.5844V15.7285L28.3845 17.683Z" fill="#2C2CAB"/>
<path d="M28.9618 22.2925L27.4159 23.185C27.2601 23.2749 27.1338 23.1795 27.1338 22.9718C27.1338 22.7642 27.2601 22.5229 27.4159 22.433L28.9618 21.5404C29.1175 21.4505 29.2438 21.546 29.2438 21.7536C29.2438 21.9613 29.1175 22.2026 28.9618 22.2925Z" fill="#7A7AFF"/>
</g>
<defs>
<filter id="filter0_d_141_7826" x="0" y="0" width="42" height="42" filterUnits="userSpaceOnUse" color-interpolation-filters="sRGB">
<feFlood flood-opacity="0" result="BackgroundImageFix"/>
<feColorMatrix in="SourceAlpha" type="matrix" values="0 0 0 0 0 0 0 0 0 0 0 0 0 0 0 0 0 0 127 0" result="hardAlpha"/>
<feOffset dy="3"/>
<feGaussianBlur stdDeviation="4.5"/>
<feComposite in2="hardAlpha" operator="out"/>
<feColorMatrix type="matrix" values="0 0 0 0 0.166667 0 0 0 0 0.166667 0 0 0 0 0.166667 0 0 0 0.42 0"/>
<feBlend mode="normal" in2="BackgroundImageFix" result="effect1_dropShadow_141_7826"/>
<feBlend mode="normal" in="SourceGraphic" in2="effect1_dropShadow_141_7826" result="shape"/>
</filter>
<linearGradient id="paint0_linear_141_7826" x1="22.648" y1="20.6844" x2="24.8963" y2="20.6844" gradientUnits="userSpaceOnUse">
<stop stop-color="#2C2CAB"/>
<stop offset="1" stop-color="#4747FF"/>
</linearGradient>
</defs>
</svg>
