<svg width="26" height="26" viewBox="0 0 26 26" fill="none" xmlns="http://www.w3.org/2000/svg">
<path d="M7.15002 3.90039C5.3551 3.90039 3.90002 5.35546 3.90002 7.15039V7.80039H22.1V7.15039C22.1 5.35547 20.645 3.90039 18.85 3.90039H7.15002ZM22.1 9.10039H3.90002V18.8504C3.90002 20.6453 5.3551 22.1004 7.15002 22.1004H18.85C20.6449 22.1004 22.1 20.6453 22.1 18.8504V9.10039ZM10.4 13.0004C10.4 13.7184 9.81799 14.3004 9.10002 14.3004C8.38205 14.3004 7.80002 13.7184 7.80002 13.0004C7.80002 12.2824 8.38205 11.7004 9.10002 11.7004C9.81799 11.7004 10.4 12.2824 10.4 13.0004ZM9.10002 18.2004C8.38205 18.2004 7.80002 17.6184 7.80002 16.9004C7.80002 16.1824 8.38205 15.6004 9.10002 15.6004C9.81799 15.6004 10.4 16.1824 10.4 16.9004C10.4 17.6184 9.81799 18.2004 9.10002 18.2004ZM14.3 13.0004C14.3 13.7184 13.718 14.3004 13 14.3004C12.2821 14.3004 11.7 13.7184 11.7 13.0004C11.7 12.2824 12.2821 11.7004 13 11.7004C13.718 11.7004 14.3 12.2824 14.3 13.0004ZM13 18.2004C12.2821 18.2004 11.7 17.6184 11.7 16.9004C11.7 16.1824 12.2821 15.6004 13 15.6004C13.718 15.6004 14.3 16.1824 14.3 16.9004C14.3 17.6184 13.718 18.2004 13 18.2004ZM18.2 13.0004C18.2 13.7184 17.618 14.3004 16.9 14.3004C16.1821 14.3004 15.6 13.7184 15.6 13.0004C15.6 12.2824 16.1821 11.7004 16.9 11.7004C17.618 11.7004 18.2 12.2824 18.2 13.0004Z" fill="#4848F7"/>
</svg>
