<svg width="18" height="18" viewBox="0 0 18 18" fill="none" xmlns="http://www.w3.org/2000/svg">
<path d="M4.9502 2.7002C3.70755 2.7002 2.7002 3.70755 2.7002 4.9502V5.4002H15.3002V4.9502C15.3002 3.70755 14.2928 2.7002 13.0502 2.7002H4.9502ZM15.3002 6.3002H2.7002V13.0502C2.7002 14.2928 3.70755 15.3002 4.9502 15.3002H13.0502C14.2928 15.3002 15.3002 14.2928 15.3002 13.0502V6.3002ZM7.2002 9.0002C7.2002 9.49725 6.79725 9.9002 6.3002 9.9002C5.80314 9.9002 5.4002 9.49725 5.4002 9.0002C5.4002 8.50314 5.80314 8.10019 6.3002 8.10019C6.79725 8.10019 7.2002 8.50314 7.2002 9.0002ZM6.3002 12.6002C5.80314 12.6002 5.4002 12.1973 5.4002 11.7002C5.4002 11.2031 5.80314 10.8002 6.3002 10.8002C6.79725 10.8002 7.2002 11.2031 7.2002 11.7002C7.2002 12.1973 6.79725 12.6002 6.3002 12.6002ZM9.9002 9.0002C9.9002 9.49725 9.49725 9.9002 9.0002 9.9002C8.50314 9.9002 8.10019 9.49725 8.10019 9.0002C8.10019 8.50314 8.50314 8.10019 9.0002 8.10019C9.49725 8.10019 9.9002 8.50314 9.9002 9.0002ZM9.0002 12.6002C8.50314 12.6002 8.10019 12.1973 8.10019 11.7002C8.10019 11.2031 8.50314 10.8002 9.0002 10.8002C9.49725 10.8002 9.9002 11.2031 9.9002 11.7002C9.9002 12.1973 9.49725 12.6002 9.0002 12.6002ZM12.6002 9.0002C12.6002 9.49725 12.1973 9.9002 11.7002 9.9002C11.2031 9.9002 10.8002 9.49725 10.8002 9.0002C10.8002 8.50314 11.2031 8.10019 11.7002 8.10019C12.1973 8.10019 12.6002 8.50314 12.6002 9.0002Z" fill="#2D1C5B"/>
</svg>
