<svg width="39" height="24" viewBox="0 0 39 24" fill="none" xmlns="http://www.w3.org/2000/svg">
<g clip-path="url(#clip0_702_76185)">
<path d="M21.8046 2.62688C22.074 2.4067 23.258 1.31312 23.8464 0.564495C23.8889 0.50578 23.8606 0.425046 23.7968 0.403027C20.6986 -0.529083 11.3192 0.37367 6.86692 7.35349C6.80311 7.4489 6.81729 7.47826 6.88819 7.53697C8.4408 4.93147 11.9643 2.88376 16.2251 2.45807C17.9762 2.28193 19.7628 2.42872 21.521 2.74431C21.6912 2.75899 21.6841 2.72963 21.8046 2.62688Z" fill="#FF0000"/>
<path d="M17.4641 14.7663H18.7048L16.5141 9.26172H14.8977L12.707 14.7663H13.9123L14.2667 13.8122H17.1026L17.4641 14.7663ZM14.6992 12.7847L15.6846 10.1204L16.6701 12.7847H14.6992Z" fill="#051039"/>
<path d="M9.53931 14.1791L10.8934 11.8379C10.943 11.7498 11.2054 11.2801 11.2904 11.0966H11.3046C11.2904 11.3021 11.2904 11.6691 11.2904 11.8379V14.7663H12.4248V9.26172H11.3401L9.6173 12.2122L7.89454 9.26172H6.61133V14.7663H7.74566V11.8379C7.74566 11.6691 7.73857 11.3094 7.73148 11.0966H7.74566C7.83073 11.2727 8.09304 11.7498 8.14267 11.8379L9.49678 14.1791H9.53931Z" fill="#051039"/>
<path d="M35.3814 14.1791L36.7639 11.8379C36.8135 11.7498 37.0829 11.2801 37.168 11.0966H37.1821C37.168 11.3021 37.168 11.6691 37.168 11.8379V14.7663H38.3023V9.26172H37.1467L35.4239 12.2122L33.7012 9.26172H32.418V14.7663H33.5523V11.8379C33.5523 11.6691 33.5452 11.3094 33.5381 11.0966H33.5523C33.6374 11.2727 33.9068 11.7498 33.9564 11.8379L35.3389 14.1791H35.3814Z" fill="#051039"/>
<path d="M5.97283 13.1508H4.76761V13.1875C4.76761 13.6352 4.53365 13.738 4.01611 13.738H2.86761C1.99559 13.738 1.86089 13.6279 1.86089 12.5783V11.3747C1.86089 10.3985 1.9885 10.2884 2.84634 10.2884H3.97358C4.48403 10.2884 4.71089 10.3838 4.71089 10.8022H6.05082C6.05082 9.59851 5.59 9.1875 4.14373 9.1875H2.64074C1.26537 9.1875 0.726562 9.72328 0.726562 11.1104V12.8646C0.726562 14.2224 1.25828 14.7581 2.61238 14.7581H4.0941C5.52619 14.7581 5.97283 14.3545 5.97283 13.1728V13.1508Z" fill="#051039"/>
<path d="M25.6115 13.1508H24.4063V13.1875C24.4063 13.6352 24.1723 13.738 23.6548 13.738H22.5063C21.6343 13.738 21.4996 13.6279 21.4996 12.5783V11.3747C21.4996 10.3985 21.6272 10.2884 22.485 10.2884H23.6122C24.1227 10.2884 24.3496 10.3838 24.3496 10.8022H25.6895C25.6895 9.59851 25.2287 9.1875 23.7824 9.1875H22.2794C20.904 9.1875 20.3652 9.73062 20.3652 11.1178V12.8719C20.3652 14.2297 20.8969 14.7581 22.2511 14.7581H23.7328C25.1649 14.7581 25.6115 14.3545 25.6115 13.1802V13.1508Z" fill="#051039"/>
<path d="M30.5032 12.637V13.2169C30.5032 13.6425 30.2764 13.738 29.7588 13.738H28.3834C27.5185 13.738 27.3909 13.6352 27.3909 12.637V11.3747C27.3909 10.3985 27.5185 10.2884 28.3764 10.2884H29.6879C30.1984 10.2884 30.4252 10.3838 30.4252 10.8022H31.7652C31.7652 9.59851 31.3043 9.1875 29.8581 9.1875H28.1779C26.8025 9.1875 26.2637 9.73062 26.2637 11.1178V12.8425C26.2637 14.2224 26.7954 14.7655 28.1353 14.7655H29.7801C31.2051 14.7655 31.6446 14.3545 31.6446 13.1581V11.6829H28.9506V12.637H30.5032Z" fill="#051039"/>
<path d="M17.1948 21.2983C16.9254 21.5185 15.7415 22.6121 15.153 23.3607C15.1105 23.4194 15.1389 23.5001 15.2027 23.5221C18.3008 24.4543 27.6803 23.5442 32.1325 16.5643C32.1963 16.4689 32.1821 16.4396 32.1112 16.3809C30.5586 18.9864 27.0351 21.0341 22.7743 21.4598C21.0232 21.6359 19.2366 21.4891 17.4784 21.1735C17.3083 21.1588 17.3154 21.1882 17.1948 21.2983Z" fill="#FF0000"/>
</g>
<defs>
<clipPath id="clip0_702_76185">
<rect width="38" height="24" fill="white" transform="translate(0.5)"/>
</clipPath>
</defs>
</svg>
