<svg width="22" height="22" viewBox="0 0 22 22" fill="none" xmlns="http://www.w3.org/2000/svg">
<path d="M8.25008 11C8.25008 11.5063 7.83968 11.9167 7.33341 11.9167C6.82715 11.9167 6.41675 11.5063 6.41675 11C6.41675 10.4937 6.82715 10.0833 7.33341 10.0833C7.83968 10.0833 8.25008 10.4937 8.25008 11Z" fill="#524B45"/>
<path d="M11.9167 11C11.9167 11.5063 11.5063 11.9167 11.0001 11.9167C10.4938 11.9167 10.0834 11.5063 10.0834 11C10.0834 10.4937 10.4938 10.0833 11.0001 10.0833C11.5063 10.0833 11.9167 10.4937 11.9167 11Z" fill="#524B45"/>
<path d="M15.5834 11C15.5834 11.5063 15.173 11.9167 14.6667 11.9167C14.1605 11.9167 13.7501 11.5063 13.7501 11C13.7501 10.4937 14.1605 10.0833 14.6667 10.0833C15.173 10.0833 15.5834 10.4937 15.5834 11Z" fill="#524B45"/>
<path d="M11.0001 20.1667C16.0627 20.1667 20.1667 16.0626 20.1667 11C20.1667 5.93739 16.0627 1.83334 11.0001 1.83334C5.93747 1.83334 1.83342 5.93739 1.83342 11C1.83342 12.4664 2.17773 13.8523 2.78992 15.0814C2.95261 15.4081 3.00676 15.7814 2.91244 16.1339L2.36647 18.1744C2.12946 19.0602 2.93985 19.8706 3.82565 19.6336L5.86619 19.0876C6.21869 18.9933 6.59202 19.0475 6.91865 19.2102C8.14775 19.8224 9.53371 20.1667 11.0001 20.1667Z" stroke="#524B45" stroke-width="1.5"/>
</svg>
