<svg width="26" height="26" viewBox="0 0 26 26" fill="none" xmlns="http://www.w3.org/2000/svg">
<path d="M11.3102 3.22582C12.3949 2.79191 13.6051 2.79191 14.6898 3.22582L22.1742 6.21958C22.9146 6.51572 23.4 7.23275 23.4 8.03011V17.9698C23.4 18.7672 22.9146 19.4842 22.1742 19.7804L14.6898 22.7741C13.6051 23.208 12.3949 23.208 11.3102 22.7741L3.82577 19.7804C3.08543 19.4842 2.59998 18.7672 2.59998 17.9698V8.03011C2.59998 7.23275 3.08543 6.51572 3.82577 6.21958L11.3102 3.22582ZM7.41383 7.85603C7.08578 7.71022 6.70165 7.85796 6.55585 8.186C6.41005 8.51405 6.55779 8.89818 6.88583 9.04398L12.3497 11.4724V17.55C12.3497 17.909 12.6407 18.2 12.9997 18.2C13.3587 18.2 13.6497 17.909 13.6497 17.55V11.4724L19.1138 9.04398C19.4419 8.89819 19.5896 8.51406 19.4438 8.18602C19.298 7.85797 18.9139 7.71023 18.5859 7.85602L12.9997 10.3387L7.41383 7.85603Z" fill="#4848F7"/>
</svg>
