<svg width="20" height="21" viewBox="0 0 20 21" fill="none" xmlns="http://www.w3.org/2000/svg">
<path d="M9.16675 3.8332H5.66675C4.26662 3.8332 3.56655 3.8332 3.03177 4.10568C2.56137 4.34536 2.17892 4.72782 1.93923 5.19822C1.66675 5.733 1.66675 6.43307 1.66675 7.8332V14.8332C1.66675 16.2333 1.66675 16.9334 1.93923 17.4682C2.17892 17.9386 2.56137 18.321 3.03177 18.5607C3.56655 18.8332 4.26662 18.8332 5.66675 18.8332H12.6667C14.0669 18.8332 14.7669 18.8332 15.3017 18.5607C15.7721 18.321 16.1546 17.9386 16.3943 17.4682C16.6667 16.9334 16.6667 16.2333 16.6667 14.8332V11.3332M6.66673 13.8332H8.06218C8.46983 13.8332 8.67366 13.8332 8.86547 13.7871C9.03553 13.7463 9.1981 13.679 9.34722 13.5876C9.51542 13.4845 9.65954 13.3404 9.9478 13.0521L17.9167 5.0832C18.6071 4.39284 18.6071 3.27355 17.9167 2.5832C17.2264 1.89284 16.1071 1.89284 15.4167 2.5832L7.44778 10.5521C7.15952 10.8404 7.0154 10.9845 6.91233 11.1527C6.82094 11.3018 6.7536 11.4644 6.71278 11.6345C6.66673 11.8263 6.66673 12.0301 6.66673 12.4378V13.8332Z" stroke="#2D1C5B" stroke-width="1.5" stroke-linecap="round" stroke-linejoin="round"/>
</svg>
