<svg width="18" height="18" viewBox="0 0 18 18" fill="none" xmlns="http://www.w3.org/2000/svg">
<path d="M9.00076 6.75347C10.6576 6.75347 12.0008 8.09661 12.0008 9.75347C12.0008 11.4103 10.6576 12.7535 9.00076 12.7535C7.3439 12.7535 6.00076 11.4103 6.00076 9.75347C6.00076 8.09661 7.3439 6.75347 9.00076 6.75347ZM9.00076 4.125C12.4609 4.125 15.4478 6.4875 16.2766 9.79829C16.352 10.0997 16.1689 10.4051 15.8675 10.4805C15.5662 10.556 15.2607 10.3728 15.1853 10.0715C14.4811 7.25847 11.9418 5.25 9.00076 5.25C6.05846 5.25 3.51833 7.2602 2.8154 10.0749C2.74013 10.3763 2.43478 10.5596 2.13337 10.4843C1.83197 10.409 1.64865 10.1037 1.72393 9.80228C2.55124 6.48954 5.53912 4.125 9.00076 4.125Z" fill="#2D1C5B"/>
</svg>
