<svg width="14" height="14" viewBox="0 0 14 14" fill="none" xmlns="http://www.w3.org/2000/svg">
<path d="M13.9997 8.30343L13.8751 11.9128C13.8726 11.9843 13.8537 12.0542 13.8198 12.1172C13.7858 12.1802 13.7379 12.2345 13.6795 12.2759C13.6212 12.3173 13.5541 12.3447 13.4834 12.356C13.4128 12.3672 13.3405 12.362 13.2722 12.3407L9.8238 11.2697C9.72803 11.24 9.6444 11.1802 9.58536 11.0992C9.52633 11.0182 9.49504 10.9203 9.49616 10.8201C9.49729 10.7198 9.53076 10.6226 9.5916 10.5429C9.65244 10.4633 9.73739 10.4054 9.8338 10.3779L10.8428 10.0893L8.1324 6.27292L4.9087 8.56231C4.80814 8.63371 4.68334 8.66225 4.56174 8.64167C4.44014 8.62108 4.33169 8.55305 4.26024 8.45252L0.0850094 2.57427C0.0141667 2.47346 -0.0140179 2.34877 0.00658358 2.22729C0.027185 2.10582 0.0949069 1.99739 0.195025 1.92558L1.14306 1.25223C1.24374 1.18106 1.3685 1.15265 1.49007 1.17323C1.61163 1.1938 1.7201 1.26168 1.79176 1.36201L5.02406 5.91334L8.24776 3.62349C8.34838 3.55213 8.47322 3.52366 8.59482 3.54434C8.71643 3.56501 8.82484 3.63314 8.89623 3.73373L12.5495 8.877L13.1547 8.01921C13.2125 7.93737 13.2951 7.87635 13.3903 7.84523C13.4855 7.81411 13.5882 7.81455 13.6831 7.84648C13.7781 7.87841 13.8601 7.94013 13.9172 8.02246C13.9742 8.10479 14.0032 8.20333 13.9997 8.30343Z" fill="#E73636"/>
</svg>
