<svg width="36" height="36" viewBox="0 0 36 36" fill="none" xmlns="http://www.w3.org/2000/svg">
<path d="M26.9096 25.1185C31.8302 20.1958 31.8302 12.2144 26.9096 7.29168C21.989 2.36892 14.0111 2.36892 9.09048 7.29168C4.16987 12.2144 4.16987 20.1958 9.09048 25.1185L11.8283 27.8165L15.5054 31.3897L15.7445 31.6016C17.1391 32.732 19.1812 32.6615 20.495 31.39L24.8802 27.124L26.9096 25.1185ZM18 21.5996C15.0177 21.5996 12.6 19.1819 12.6 16.1996C12.6 13.2173 15.0177 10.7996 18 10.7996C20.9824 10.7996 23.4 13.2173 23.4 16.1996C23.4 19.1819 20.9824 21.5996 18 21.5996Z" fill="#4848F7"/>
</svg>
