<svg width="15" height="14" viewBox="0 0 15 14" fill="none" xmlns="http://www.w3.org/2000/svg">
<g clip-path="url(#clip0_29_35187)">
<path d="M14.7497 5.11325L14.6251 1.50392C14.6226 1.43242 14.6037 1.36245 14.5698 1.29947C14.5358 1.23648 14.4879 1.18216 14.4295 1.14075C14.3712 1.09934 14.3041 1.07195 14.2334 1.06071C14.1628 1.04947 14.0905 1.05469 14.0222 1.07595L10.5738 2.14703C10.478 2.17666 10.3944 2.23644 10.3354 2.31746C10.2763 2.39847 10.245 2.4964 10.2462 2.59663C10.2473 2.69687 10.2808 2.79407 10.3416 2.87374C10.4024 2.95341 10.4874 3.0113 10.5838 3.03878L11.5928 3.32742L8.8824 7.14377L5.6587 4.85438C5.55814 4.78298 5.43334 4.75443 5.31174 4.77502C5.19014 4.79561 5.08169 4.86364 5.01024 4.96416L0.835009 10.8424C0.764167 10.9432 0.735982 11.0679 0.756584 11.1894C0.777185 11.3109 0.844907 11.4193 0.945025 11.4911L1.89306 12.1645C1.99374 12.2356 2.1185 12.264 2.24007 12.2435C2.36163 12.2229 2.4701 12.155 2.54176 12.0547L5.77406 7.50335L8.99776 9.7932C9.09838 9.86456 9.22322 9.89303 9.34482 9.87235C9.46643 9.85168 9.57484 9.78355 9.64623 9.68295L13.2995 4.53969L13.9047 5.39748C13.9625 5.47932 14.0451 5.54034 14.1403 5.57146C14.2355 5.60258 14.3382 5.60214 14.4331 5.57021C14.5281 5.53828 14.6101 5.47656 14.6672 5.39423C14.7242 5.3119 14.7532 5.21335 14.7497 5.11325Z" fill="#58D12D"/>
</g>
<defs>
<clipPath id="clip0_29_35187">
<rect width="14" height="14" fill="white" transform="translate(0.75)"/>
</clipPath>
</defs>
</svg>
