<svg width="20" height="21" viewBox="0 0 20 21" fill="none" xmlns="http://www.w3.org/2000/svg">
<path d="M4.60142 1.43828C4.40611 1.6414 4.41392 1.74297 4.65611 2.62578C4.76548 3.03203 4.85923 3.37578 4.85923 3.3914C4.85923 3.41484 4.20298 3.43047 3.3983 3.43047H1.93736L1.76548 3.60234C1.55455 3.82109 1.49205 4.07109 1.60923 4.32109C1.78111 4.68828 1.78111 4.68047 3.60142 4.71172L5.23423 4.73515L6.72642 10.1258C7.54673 13.0945 8.22642 15.5633 8.24205 15.6102C8.26548 15.6883 8.28892 15.6883 8.49205 15.5711C8.60923 15.5008 8.82017 15.407 8.9608 15.3602C9.09361 15.3211 9.20298 15.2664 9.20298 15.2586C9.20298 15.2039 5.4608 1.69609 5.40611 1.57109C5.28892 1.25078 4.85923 1.18047 4.60142 1.43828Z" fill="#2D1C5B"/>
<path d="M12.4296 6.68794C10.4764 7.227 8.81237 7.70357 8.74206 7.73482C8.42175 7.85982 8.40612 7.75044 9.49206 11.6958C10.0467 13.6879 10.5077 15.3598 10.5233 15.4145C10.5624 15.5395 10.7499 15.7036 10.8592 15.7036C11.0155 15.7036 18.2811 13.6645 18.3514 13.5942C18.5467 13.4301 18.5389 13.3911 17.5702 9.89107C17.0546 8.01607 16.5858 6.32075 16.5233 6.13325C16.4139 5.77388 16.3202 5.68013 16.1014 5.68794C16.0311 5.68794 14.3827 6.14107 12.4296 6.68794ZM14.7577 8.6645C15.0389 8.89107 15.2889 9.11763 15.3124 9.1645C15.3827 9.30513 15.2733 9.39107 14.9842 9.46919C14.8436 9.50825 14.7264 9.55513 14.7264 9.59419C14.7264 9.63325 14.8436 10.0708 14.9842 10.5708C15.1249 11.0708 15.2421 11.5395 15.2421 11.602C15.2421 11.7504 15.0233 11.8676 14.8905 11.7895C14.7655 11.7114 14.7499 11.6567 14.4686 10.6411L14.2108 9.68794L13.9061 9.76607C13.6327 9.84419 13.6014 9.84419 13.5233 9.76607C13.4452 9.68794 13.4608 9.62544 13.7108 8.96919C13.9686 8.27388 14.0467 8.15669 14.1952 8.23482C14.2264 8.25044 14.4764 8.44575 14.7577 8.6645ZM12.5389 9.29732C13.0155 9.67232 13.0936 9.76607 13.0858 9.86763C13.078 9.977 13.0233 10.0083 12.8046 10.0786C12.6561 10.1254 12.5311 10.1723 12.5155 10.1879C12.4999 10.2036 12.6092 10.6567 12.7655 11.2036C12.9217 11.7504 13.0467 12.2192 13.0467 12.2348C13.0467 12.2504 13.0077 12.3051 12.9686 12.3442C12.8749 12.4379 12.6717 12.4536 12.6014 12.3598C12.5702 12.3208 12.4217 11.852 12.2733 11.3051L11.9999 10.3208L11.8202 10.3598C11.4842 10.4301 11.2889 10.4145 11.2655 10.3129C11.2577 10.2583 11.3358 9.98482 11.4374 9.69575C11.7421 8.85982 11.7577 8.84419 11.8749 8.84419C11.9296 8.852 12.2264 9.05513 12.5389 9.29732ZM16.0467 12.1879C16.1405 12.2817 16.1171 12.477 15.9921 12.5551C15.8592 12.6333 12.6092 13.5551 12.4452 13.5551C12.3905 13.5551 12.3124 13.5317 12.2733 13.5083C12.1796 13.4458 12.1874 13.1879 12.2811 13.1254C12.3983 13.0551 15.6561 12.1333 15.828 12.1254C15.9139 12.1333 16.0155 12.1489 16.0467 12.1879Z" fill="#2D1C5B"/>
<path d="M16.4452 15.3912C16.2733 15.4303 12.1639 16.5709 12.1483 16.5944C12.1405 16.6022 12.1874 16.7506 12.2577 16.9147C12.328 17.0787 12.3827 17.2662 12.3827 17.3209C12.3905 17.5787 12.3749 17.5787 14.6249 16.9615C17.0311 16.2897 17.0311 16.2897 17.0311 15.8912C17.0311 15.5553 16.7577 15.3287 16.4452 15.3912Z" fill="#2D1C5B"/>
<path d="M9.21069 16.0938C7.5935 16.6797 7.51537 18.8828 9.08569 19.6016C9.28881 19.6953 9.42944 19.7188 9.79662 19.7188C10.1951 19.7188 10.2966 19.6953 10.5701 19.5781C10.9451 19.4063 11.2966 19.0625 11.4919 18.6719C11.6169 18.4219 11.6326 18.3359 11.6326 17.8828C11.6326 17.4297 11.6169 17.3438 11.4919 17.0781C11.3044 16.7031 10.9763 16.3672 10.6013 16.1875C10.2341 16.0078 9.57006 15.9609 9.21069 16.0938ZM10.1716 17.2891C10.4919 17.5156 10.6091 17.9453 10.4138 18.2422C10.1247 18.6797 9.4685 18.6797 9.21069 18.25C9.03881 17.9766 9.10131 17.5469 9.33569 17.3516C9.4685 17.2422 9.78881 17.1484 9.92944 17.1797C9.99194 17.1875 10.1091 17.2422 10.1716 17.2891Z" fill="#2D1C5B"/>
</svg>
