<svg width="20" height="21" viewBox="0 0 20 21" fill="none" xmlns="http://www.w3.org/2000/svg">
<path d="M9.55345 2.16534C9.46536 2.21277 8.34722 2.8701 7.06645 3.62908C5.7789 4.38128 4.14575 5.35033 3.42743 5.77047C2.3093 6.4278 2.11278 6.55656 2.07212 6.6582C1.9908 6.82084 1.9908 9.28074 2.06534 9.46371C2.15344 9.68056 2.4245 9.74832 2.68201 9.61957C2.75655 9.57891 2.83109 9.5518 2.83787 9.5518C2.84465 9.5518 2.8582 11.5848 2.8582 14.065C2.8582 18.4833 2.86498 18.585 2.92597 18.6934C3.06827 18.9306 2.49227 18.917 10.0075 18.917C17.5227 18.917 16.9467 18.9374 17.089 18.6934C17.1568 18.585 17.1568 18.4833 17.1568 14.0108V9.44338L17.3194 9.53825C17.5295 9.66023 17.7124 9.6399 17.8751 9.48404L17.9835 9.37561L17.9971 8.03385C18.0038 6.80729 18.0038 6.68531 17.9429 6.57011C17.8886 6.46846 17.7396 6.36681 17.0212 5.93989C16.5469 5.66205 14.9002 4.67945 13.3551 3.76461L10.5564 2.09757L10.1295 2.08402C9.73642 2.07724 9.69576 2.08402 9.55345 2.16534ZM13.3077 7.19355L16.3029 8.94191L16.3165 13.5093L16.3232 18.0767H10.0143H3.69172V13.55V9.03678L6.78184 7.24099L9.87873 5.45197H10.0956H10.3124L13.3077 7.19355Z" fill="#2D1C5B"/>
<path d="M7.28322 8.0472C7.05281 8.18273 7.05959 8.12174 7.05959 10.2564V12.1877H10.0074H12.9552V10.2564C12.9552 8.12174 12.962 8.18273 12.7316 8.0472C12.6232 7.97943 12.5486 7.97943 11.5254 7.97943H10.4275V8.87394C10.4275 9.85654 10.414 9.93109 10.2175 10.0327C10.0074 10.1412 9.73634 10.0666 9.64147 9.87687C9.60081 9.79555 9.58725 9.61259 9.58725 8.88072V7.97266H8.49622C7.46619 7.97266 7.38487 7.97943 7.28322 8.0472Z" fill="#2D1C5B"/>
<path d="M4.53857 14.9597C4.53857 16.8233 4.54535 16.9046 4.60634 17.013C4.74865 17.2434 4.64022 17.2366 7.23565 17.2366H9.58712V15.1359V13.0352H8.74683H7.89975V13.9297C7.89975 14.9123 7.8862 14.9868 7.68968 15.0885C7.47961 15.1969 7.20854 15.1223 7.11367 14.9326C7.07301 14.8513 7.05946 14.6683 7.05946 13.9364V13.0419H5.79902H4.53857V14.9597Z" fill="#2D1C5B"/>
<path d="M10.4277 15.128V17.2287H12.786C15.0629 17.2287 15.1442 17.2219 15.2527 17.1609C15.4831 17.0254 15.4763 17.0864 15.4763 14.9518V13.0204H14.2158H12.9554V13.915C12.9554 14.6468 12.9418 14.8298 12.9012 14.9111C12.8063 15.1009 12.5352 15.1754 12.3252 15.067C12.1287 14.9653 12.1151 14.8976 12.1151 13.9082V13.0137H11.2748H10.4345V15.128H10.4277Z" fill="#2D1C5B"/>
</svg>
