<svg width="20" height="21" viewBox="0 0 20 21" fill="none" xmlns="http://www.w3.org/2000/svg">
<path d="M9.24815 2.56588C9.09443 2.47804 8.90573 2.47804 8.75201 2.56588L5.57084 4.38369C5.2179 4.58537 5.00008 4.96071 5.00008 5.36721C5.00008 5.94788 5.43699 6.4265 6 6.49227V8.68587C5.38402 8.9724 4.9343 9.56437 4.85488 10.2791L4.06483 17.3896C3.99901 17.9819 4.4627 18.5 5.05871 18.5H12.9414C13.5375 18.5 14.0012 17.9819 13.9353 17.3896L13.1453 10.2791C13.0659 9.56431 12.6161 8.9723 12 8.6858V8.51281C12.0001 8.50856 12.0001 8.50429 12.0001 8.50002V6.5L12.0001 6.49228C12.5631 6.42656 13.0001 5.94791 13.0001 5.36721C13.0001 4.96071 12.7823 4.58537 12.4293 4.38369L9.24815 2.56588ZM11 8.5H7.00008V6.5L11 6.5V8.5ZM5.51652 13.3798L12.2831 11.5753L12.4952 13.4838L5.29151 15.4048L5.51652 13.3798ZM16.5001 7.5H14.5001C14.2239 7.5 14.0001 7.27614 14.0001 7C14.0001 6.72386 14.2239 6.5 14.5001 6.5H16.5001C16.7762 6.5 17.0001 6.72386 17.0001 7C17.0001 7.27614 16.7762 7.5 16.5001 7.5ZM15.8536 4.35355C16.0489 4.15829 16.0489 3.84171 15.8536 3.64645C15.6584 3.45118 15.3418 3.45118 15.1465 3.64645L14.1465 4.64645C13.9513 4.84171 13.9513 5.15829 14.1465 5.35355C14.3418 5.54882 14.6584 5.54882 14.8536 5.35355L15.8536 4.35355ZM15.8536 10.3536C16.0489 10.1583 16.0489 9.84171 15.8536 9.64645L14.8536 8.64645C14.6584 8.45118 14.3418 8.45118 14.1465 8.64645C13.9513 8.84171 13.9513 9.15829 14.1465 9.35355L15.1465 10.3536C15.3418 10.5488 15.6584 10.5488 15.8536 10.3536Z" fill="#2D1C5B"/>
</svg>
