<svg width="20" height="21" viewBox="0 0 20 21" fill="none" xmlns="http://www.w3.org/2000/svg">
<path d="M3.25 2.5C2.55964 2.5 2 3.05964 2 3.75V14.25C2 14.9404 2.55964 15.5 3.25 15.5H7.5V13.7589C7.5 13.0756 7.79951 12.4267 8.31947 11.9833L11.7902 9.02417C12.1432 8.72321 12.566 8.54855 13 8.50021V7.75C13 7.05964 12.4404 6.5 11.75 6.5H10.25C10.1119 6.5 10 6.38807 10 6.25V3.75C10 3.05964 9.44036 2.5 8.75 2.5H3.25ZM4.75 6C4.33579 6 4 5.66421 4 5.25C4 4.83579 4.33579 4.5 4.75 4.5C5.16421 4.5 5.5 4.83579 5.5 5.25C5.5 5.66421 5.16421 6 4.75 6ZM5.5 7.5C5.5 7.91421 5.16421 8.25 4.75 8.25C4.33579 8.25 4 7.91421 4 7.5C4 7.08579 4.33579 6.75 4.75 6.75C5.16421 6.75 5.5 7.08579 5.5 7.5ZM4.75 10.5C4.33579 10.5 4 10.1642 4 9.75C4 9.33579 4.33579 9 4.75 9C5.16421 9 5.5 9.33579 5.5 9.75C5.5 10.1642 5.16421 10.5 4.75 10.5ZM8 5.25C8 5.66421 7.66421 6 7.25 6C6.83579 6 6.5 5.66421 6.5 5.25C6.5 4.83579 6.83579 4.5 7.25 4.5C7.66421 4.5 8 4.83579 8 5.25ZM7.25 8.25C6.83579 8.25 6.5 7.91421 6.5 7.5C6.5 7.08579 6.83579 6.75 7.25 6.75C7.66421 6.75 8 7.08579 8 7.5C8 7.91421 7.66421 8.25 7.25 8.25ZM8 9.75C8 10.1642 7.66421 10.5 7.25 10.5C6.83579 10.5 6.5 10.1642 6.5 9.75C6.5 9.33579 6.83579 9 7.25 9C7.66421 9 8 9.33579 8 9.75ZM14.061 9.7844C13.5937 9.386 12.9063 9.386 12.439 9.7844L8.96827 12.7436C8.67115 12.9969 8.5 13.3677 8.5 13.7582V18.3742C8.5 18.9956 9.00368 19.4992 9.625 19.4992H11.375C11.9963 19.4992 12.5 18.9955 12.5 18.3742V16.625C12.5 16.556 12.556 16.5 12.625 16.5H13.875C13.944 16.5 14 16.556 14 16.625V18.3742C14 18.9955 14.5037 19.4992 15.125 19.4992H16.875C17.4963 19.4992 18 18.9955 18 18.3742V13.7582C18 13.3677 17.8289 12.9969 17.5317 12.7436L14.061 9.7844ZM13.0878 10.5454C13.1813 10.4657 13.3187 10.4657 13.4122 10.5454L16.8829 13.5045C16.9572 13.5679 17 13.6606 17 13.7582V18.3742C17 18.4433 16.944 18.4992 16.875 18.4992H15.125C15.056 18.4992 15 18.4433 15 18.3742V16.625C15 16.0037 14.4963 15.5 13.875 15.5H12.625C12.0037 15.5 11.5 16.0037 11.5 16.625V18.3742C11.5 18.4433 11.444 18.4992 11.375 18.4992H9.625C9.55596 18.4992 9.5 18.4433 9.5 18.3742V13.7582C9.5 13.6606 9.54279 13.5679 9.61707 13.5045L13.0878 10.5454Z" fill="#2D1C5B"/>
</svg>
