<svg width="20" height="21" viewBox="0 0 20 21" fill="none" xmlns="http://www.w3.org/2000/svg">
<path d="M4 2.5C2.89543 2.5 2 3.39543 2 4.5V17.5C2 18.0523 2.44772 18.5 3 18.5H10.5C10.7761 18.5 11 18.2761 11 18V16C11 15.7239 11.2239 15.5 11.5 15.5H14.5C14.7761 15.5 15 15.7239 15 16V18C15 18.2761 15.2239 18.5 15.5 18.5H17C17.5523 18.5 18 18.0523 18 17.5V7.5C18 6.39543 17.1046 5.5 16 5.5H12V4.5C12 3.39543 11.1046 2.5 10 2.5H4ZM11 5.5H10C8.89543 5.5 8 6.39543 8 7.5V17.5H3V4.5C3 3.94772 3.44772 3.5 4 3.5H10C10.5523 3.5 11 3.94772 11 4.5V5.5ZM5.25 10C5.66421 10 6 9.66421 6 9.25C6 8.83579 5.66421 8.5 5.25 8.5C4.83579 8.5 4.5 8.83579 4.5 9.25C4.5 9.66421 4.83579 10 5.25 10ZM6 6.25C6 6.66421 5.66421 7 5.25 7C4.83579 7 4.5 6.66421 4.5 6.25C4.5 5.83579 4.83579 5.5 5.25 5.5C5.66421 5.5 6 5.83579 6 6.25ZM5.25 16C5.66421 16 6 15.6642 6 15.25C6 14.8358 5.66421 14.5 5.25 14.5C4.83579 14.5 4.5 14.8358 4.5 15.25C4.5 15.6642 4.83579 16 5.25 16ZM6 12.25C6 12.6642 5.66421 13 5.25 13C4.83579 13 4.5 12.6642 4.5 12.25C4.5 11.8358 4.83579 11.5 5.25 11.5C5.66421 11.5 6 11.8358 6 12.25ZM11.25 10C10.8358 10 10.5 9.66421 10.5 9.25C10.5 8.83579 10.8358 8.5 11.25 8.5C11.6642 8.5 12 8.83579 12 9.25C12 9.66421 11.6642 10 11.25 10ZM12 12.25C12 12.6642 11.6642 13 11.25 13C10.8358 13 10.5 12.6642 10.5 12.25C10.5 11.8358 10.8358 11.5 11.25 11.5C11.6642 11.5 12 11.8358 12 12.25ZM14.75 10C14.3358 10 14 9.66421 14 9.25C14 8.83579 14.3358 8.5 14.75 8.5C15.1642 8.5 15.5 8.83579 15.5 9.25C15.5 9.66421 15.1642 10 14.75 10ZM15.5 12.25C15.5 12.6642 15.1642 13 14.75 13C14.3358 13 14 12.6642 14 12.25C14 11.8358 14.3358 11.5 14.75 11.5C15.1642 11.5 15.5 11.8358 15.5 12.25Z" fill="#2D1C5B"/>
</svg>
