<svg width="20" height="21" viewBox="0 0 20 21" fill="none" xmlns="http://www.w3.org/2000/svg">
<path d="M2.04237 10.3881V14.749C2.04237 15.7155 2.82587 16.499 3.79237 16.499H4.05039C4.28203 17.6402 5.2909 18.499 6.50038 18.499C7.70986 18.499 8.71874 17.6402 8.95037 16.499H10.0504C10.282 17.6402 11.2909 18.499 12.5004 18.499C13.7099 18.499 14.7188 17.6401 14.9504 16.4989H16.5005C17.3289 16.4989 18.0005 15.8273 18.0005 14.9989V11.235C18.0005 11.0021 17.9463 10.7724 17.8421 10.5641L16.2241 7.32816C15.97 6.81992 15.4505 6.4989 14.8823 6.49898L14.0004 6.49911V5.24905C14.0004 4.28255 13.2169 3.49905 12.2504 3.49905H10.1587C10.3773 3.82335 10.5004 4.21087 10.5004 4.61708V8.38101C10.5004 9.13856 10.0724 9.83108 9.39481 10.1699L6.39481 11.6699C5.83175 11.9514 5.16901 11.9514 4.60595 11.6699L2.04237 10.3881ZM14.0004 7.49911L14.8824 7.49898C15.0718 7.49896 15.245 7.60596 15.3297 7.77538L16.6915 10.499H14.0004V7.49911ZM6.50038 14.499C7.32881 14.499 8.00038 15.1706 8.00038 15.999C8.00038 16.8275 7.32881 17.499 6.50038 17.499C5.67195 17.499 5.00038 16.8275 5.00038 15.999C5.00038 15.1706 5.67195 14.499 6.50038 14.499ZM11.0004 15.999C11.0004 15.1706 11.672 14.499 12.5004 14.499C13.3288 14.499 14.0004 15.1706 14.0004 15.999C14.0004 16.8275 13.3288 17.499 12.5004 17.499C11.672 17.499 11.0004 16.8275 11.0004 15.999ZM1.5 4.61719V8.38112C1.5 8.75989 1.714 9.10615 2.05279 9.27555L5.05279 10.7755C5.33431 10.9163 5.66569 10.9163 5.94721 10.7755L8.94721 9.27555C9.286 9.10615 9.5 8.75989 9.5 8.38112V4.61719C9.5 4.23842 9.286 3.89215 8.94721 3.72276L5.94721 2.22276C5.66569 2.082 5.33431 2.082 5.05279 2.22276L2.05279 3.72276C1.714 3.89215 1.5 4.23842 1.5 4.61719ZM3.19449 4.53853L5.50004 5.51202L7.8055 4.53853C8.0599 4.43112 8.3532 4.55026 8.46062 4.80466C8.56804 5.05905 8.44889 5.35236 8.1945 5.45977L6.00004 6.38639L6 8.99916C6 9.2753 5.77614 9.49916 5.49999 9.49915C5.22385 9.49915 5 9.27529 5 8.99915L5.00004 6.38639L2.80551 5.45978C2.55111 5.35236 2.43196 5.05906 2.53938 4.80466C2.64679 4.55027 2.9401 4.43112 3.19449 4.53853Z" fill="#2D1C5B"/>
</svg>
