<svg width="17" height="17" viewBox="0 0 17 17" fill="none" xmlns="http://www.w3.org/2000/svg">
<path d="M15.8413 8.81025L14.9791 7.57934C14.8982 7.46397 14.7749 7.3854 14.6361 7.3609C14.4974 7.3364 14.3546 7.36796 14.2391 7.44866L13.0082 8.31087C12.8987 8.39401 12.8257 8.5163 12.8044 8.6521C12.7832 8.7879 12.8153 8.92665 12.8941 9.03927C12.9729 9.15188 13.0923 9.22961 13.2272 9.25614C13.362 9.28268 13.5019 9.25596 13.6175 9.18159L13.7349 9.09925C13.3482 11.4458 11.4235 13.2812 9.03072 13.5198V6.90625H10.6245C10.7654 6.90625 10.9005 6.85028 11.0001 6.75065C11.0997 6.65102 11.1557 6.5159 11.1557 6.375C11.1557 6.2341 11.0997 6.09898 11.0001 5.99935C10.9005 5.89972 10.7654 5.84375 10.6245 5.84375H9.03072V4.69466C9.79625 4.46409 10.3588 3.76125 10.3588 2.92188C10.3588 1.89656 9.52478 1.0625 8.49946 1.0625C7.47415 1.0625 6.64009 1.89656 6.64009 2.92188C6.64009 3.76125 7.20268 4.46409 7.96821 4.69466V5.84375H6.37446C6.23357 5.84375 6.09844 5.89972 5.99881 5.99935C5.89919 6.09898 5.84321 6.2341 5.84321 6.375C5.84321 6.5159 5.89919 6.65102 5.99881 6.75065C6.09844 6.85028 6.23357 6.90625 6.37446 6.90625H7.96821V13.5198C5.57493 13.2812 3.65075 11.4458 3.264 9.09925L3.3814 9.18159C3.49687 9.2624 3.6397 9.29402 3.77848 9.26952C3.91727 9.24501 4.04063 9.16637 4.12143 9.05091C4.20224 8.93544 4.23386 8.79261 4.20936 8.65382C4.18485 8.51504 4.10621 8.39168 3.99075 8.31087L2.75984 7.44866C2.70267 7.40863 2.63818 7.38026 2.57005 7.36516C2.50191 7.35007 2.43147 7.34855 2.36275 7.36068C2.29403 7.37282 2.22837 7.39838 2.16953 7.43589C2.11068 7.47341 2.05981 7.52216 2.01981 7.57934L1.15759 8.81025C1.07679 8.92571 1.04516 9.06855 1.06967 9.20733C1.09418 9.34611 1.17281 9.46948 1.28828 9.55028C1.40374 9.63108 1.54658 9.66271 1.68536 9.6382C1.82414 9.61369 1.94751 9.53506 2.02831 9.41959L2.2015 9.17256C2.63234 12.0711 5.01446 14.3368 7.96821 14.5823V15.4062C7.96821 15.5471 8.02419 15.6823 8.12381 15.7819C8.22344 15.8815 8.35857 15.9375 8.49946 15.9375C8.64036 15.9375 8.77549 15.8815 8.87512 15.7819C8.97474 15.6823 9.03072 15.5471 9.03072 15.4062V14.5823C11.9845 14.3368 14.3666 12.0711 14.7974 9.17256L14.9706 9.41959C15.0106 9.47677 15.0615 9.5255 15.1204 9.56301C15.1792 9.60052 15.2449 9.62607 15.3136 9.6382C15.3823 9.65034 15.4527 9.64882 15.5209 9.63373C15.589 9.61865 15.6535 9.59029 15.7107 9.55028C15.7678 9.51027 15.8166 9.45939 15.8541 9.40055C15.8916 9.34171 15.9171 9.27605 15.9293 9.20733C15.9414 9.13861 15.9399 9.06818 15.9248 9.00005C15.9097 8.93192 15.8814 8.86742 15.8413 8.81025ZM7.70312 2.92188C7.70312 2.48253 8.06065 2.125 8.5 2.125C8.93934 2.125 9.29687 2.48253 9.29687 2.92188C9.29687 3.36122 8.93934 3.71875 8.5 3.71875C8.06065 3.71875 7.70312 3.36122 7.70312 2.92188Z" fill="#6264A0"/>
</svg>
