<svg width="1085" height="178" viewBox="0 0 1085 178" fill="none" xmlns="http://www.w3.org/2000/svg">
<mask id="path-1-inside-1_24_190" fill="white">
<path fill-rule="evenodd" clip-rule="evenodd" d="M826 0.00195312C822.134 0.00195312 819.141 3.4883 816.649 6.444C814.814 8.61977 812.069 10.002 809 10.002C805.931 10.002 803.186 8.61976 801.351 6.444C798.859 3.4883 795.866 0.00195312 792 0.00195312H24C12.6863 0.00195312 7.02944 0.00195312 3.51472 3.51667C0 7.03139 0 12.6882 0 24.002V154.002C0 165.316 0 170.973 3.51472 174.487C7.02944 178.002 12.6863 178.002 24 178.002H792C795.866 178.002 798.859 174.516 801.351 171.56C803.186 169.384 805.931 168.002 809 168.002C812.069 168.002 814.814 169.384 816.649 171.56C819.141 174.516 822.134 178.002 826 178.002H1061C1072.31 178.002 1077.97 178.002 1081.49 174.487C1085 170.973 1085 165.316 1085 154.002V24.002C1085 12.6882 1085 7.03139 1081.49 3.51667C1077.97 0.00195312 1072.31 0.00195312 1061 0.00195312H826Z"/>
</mask>
<path fill-rule="evenodd" clip-rule="evenodd" d="M826 0.00195312C822.134 0.00195312 819.141 3.4883 816.649 6.444C814.814 8.61977 812.069 10.002 809 10.002C805.931 10.002 803.186 8.61976 801.351 6.444C798.859 3.4883 795.866 0.00195312 792 0.00195312H24C12.6863 0.00195312 7.02944 0.00195312 3.51472 3.51667C0 7.03139 0 12.6882 0 24.002V154.002C0 165.316 0 170.973 3.51472 174.487C7.02944 178.002 12.6863 178.002 24 178.002H792C795.866 178.002 798.859 174.516 801.351 171.56C803.186 169.384 805.931 168.002 809 168.002C812.069 168.002 814.814 169.384 816.649 171.56C819.141 174.516 822.134 178.002 826 178.002H1061C1072.31 178.002 1077.97 178.002 1081.49 174.487C1085 170.973 1085 165.316 1085 154.002V24.002C1085 12.6882 1085 7.03139 1081.49 3.51667C1077.97 0.00195312 1072.31 0.00195312 1061 0.00195312H826Z" fill="#F9FAFB"/>
<path d="M3.51472 174.487L4.22183 173.78L4.22182 173.78L3.51472 174.487ZM1081.49 174.487L1080.78 173.78L1080.78 173.78L1081.49 174.487ZM1081.49 3.51667L1080.78 4.22377L1080.78 4.22378L1081.49 3.51667ZM801.351 171.56L800.587 170.915L801.351 171.56ZM801.351 6.444L800.587 7.08857L801.351 6.444ZM816.649 171.56L817.413 170.915L816.649 171.56ZM816.649 6.444L817.413 7.08858L816.649 6.444ZM809 11.002C812.376 11.002 815.397 9.48007 817.413 7.08858L815.884 5.79942C814.232 7.75946 811.761 9.00195 809 9.00195V11.002ZM800.587 7.08857C802.603 9.48007 805.624 11.002 809 11.002V9.00195C806.239 9.00195 803.768 7.75946 802.116 5.79942L800.587 7.08857ZM24 1.00195H792V-0.998047H24V1.00195ZM4.22183 4.22378C5.76242 2.68319 7.80911 1.85681 10.966 1.43238C14.1516 1.00408 18.3149 1.00195 24 1.00195V-0.998047C18.3714 -0.998047 14.0494 -1.00017 10.6995 -0.54979C7.32084 -0.0955415 4.78174 0.835437 2.80761 2.80956L4.22183 4.22378ZM1 24.002C1 18.3168 1.00212 14.1536 1.43042 10.9679C1.85485 7.81106 2.68124 5.76437 4.22183 4.22378L2.80761 2.80956C0.833483 4.78369 -0.0974946 7.32279 -0.551743 10.7014C-1.00212 14.0513 -1 18.3734 -1 24.002H1ZM1 154.002V24.002H-1V154.002H1ZM4.22182 173.78C2.68124 172.24 1.85485 170.193 1.43042 167.036C1.00212 163.85 1 159.687 1 154.002H-1C-1 159.631 -1.00212 163.953 -0.551743 167.302C-0.0974946 170.681 0.833483 173.22 2.80761 175.194L4.22182 173.78ZM24 177.002C18.3149 177.002 14.1516 177 10.966 176.572C7.80911 176.147 5.76242 175.321 4.22183 173.78L2.80761 175.194C4.78174 177.168 7.32083 178.099 10.6995 178.554C14.0494 179.004 18.3714 179.002 24 179.002V177.002ZM792 177.002H24V179.002H792V177.002ZM802.116 172.204C803.768 170.244 806.239 169.002 809 169.002V167.002C805.624 167.002 802.603 168.524 800.587 170.915L802.116 172.204ZM809 169.002C811.761 169.002 814.232 170.244 815.884 172.204L817.413 170.915C815.397 168.524 812.376 167.002 809 167.002V169.002ZM1061 177.002H826V179.002H1061V177.002ZM1080.78 173.78C1079.24 175.321 1077.19 176.147 1074.03 176.572C1070.85 177 1066.69 177.002 1061 177.002V179.002C1066.63 179.002 1070.95 179.004 1074.3 178.554C1077.68 178.099 1080.22 177.168 1082.19 175.194L1080.78 173.78ZM1084 154.002C1084 159.687 1084 163.85 1083.57 167.036C1083.15 170.193 1082.32 172.24 1080.78 173.78L1082.19 175.194C1084.17 173.22 1085.1 170.681 1085.55 167.302C1086 163.953 1086 159.631 1086 154.002H1084ZM1084 24.002V154.002H1086V24.002H1084ZM1080.78 4.22378C1082.32 5.76437 1083.15 7.81106 1083.57 10.9679C1084 14.1536 1084 18.3168 1084 24.002H1086C1086 18.3734 1086 14.0513 1085.55 10.7014C1085.1 7.32278 1084.17 4.78369 1082.19 2.80956L1080.78 4.22378ZM1061 1.00195C1066.69 1.00195 1070.85 1.00408 1074.03 1.43238C1077.19 1.85681 1079.24 2.68319 1080.78 4.22377L1082.19 2.80957C1080.22 0.835437 1077.68 -0.0955415 1074.3 -0.54979C1070.95 -1.00017 1066.63 -0.998047 1061 -0.998047V1.00195ZM826 1.00195H1061V-0.998047H826V1.00195ZM792 179.002C794.249 179.002 796.181 177.985 797.818 176.669C799.448 175.357 800.879 173.672 802.116 172.204L800.587 170.915C799.332 172.404 798.02 173.939 796.564 175.11C795.115 176.276 793.617 177.002 792 177.002V179.002ZM802.116 5.79942C800.879 4.33237 799.448 2.64667 797.818 1.33535C796.181 0.0187395 794.249 -0.998047 792 -0.998047V1.00195C793.617 1.00195 795.115 1.72834 796.564 2.89383C798.02 4.0646 799.332 5.59993 800.587 7.08857L802.116 5.79942ZM815.884 172.204C817.121 173.672 818.552 175.357 820.182 176.669C821.819 177.985 823.751 179.002 826 179.002V177.002C824.383 177.002 822.885 176.276 821.436 175.11C819.98 173.939 818.668 172.404 817.413 170.915L815.884 172.204ZM817.413 7.08858C818.668 5.59993 819.98 4.0646 821.436 2.89383C822.885 1.72834 824.383 1.00195 826 1.00195V-0.998047C823.751 -0.998047 821.819 0.0187397 820.182 1.33535C818.552 2.64667 817.121 4.33237 815.884 5.79942L817.413 7.08858Z" fill="#E5E7EB" mask="url(#path-1-inside-1_24_190)"/>
</svg>
