<svg width="1085" height="178" viewBox="0 0 1085 178" fill="none" xmlns="http://www.w3.org/2000/svg">
<mask id="path-1-inside-1_21_262" fill="white">
<path fill-rule="evenodd" clip-rule="evenodd" d="M826 0C822.134 0 819.141 3.48634 816.649 6.44204C814.814 8.61781 812.069 10 809 10C805.931 10 803.186 8.61781 801.351 6.44204C798.859 3.48634 795.866 0 792 0H24C12.6863 0 7.02944 0 3.51472 3.51472C0 7.02944 0 12.6863 0 24V154C0 165.314 0 170.971 3.51472 174.485C7.02944 178 12.6863 178 24 178H792C795.866 178 798.859 174.514 801.351 171.558C803.186 169.382 805.931 168 809 168C812.069 168 814.814 169.382 816.649 171.558C819.141 174.514 822.134 178 826 178H1061C1072.31 178 1077.97 178 1081.49 174.485C1085 170.971 1085 165.314 1085 154V24C1085 12.6863 1085 7.02944 1081.49 3.51472C1077.97 0 1072.31 0 1061 0H826Z"/>
</mask>
<path fill-rule="evenodd" clip-rule="evenodd" d="M826 0C822.134 0 819.141 3.48634 816.649 6.44204C814.814 8.61781 812.069 10 809 10C805.931 10 803.186 8.61781 801.351 6.44204C798.859 3.48634 795.866 0 792 0H24C12.6863 0 7.02944 0 3.51472 3.51472C0 7.02944 0 12.6863 0 24V154C0 165.314 0 170.971 3.51472 174.485C7.02944 178 12.6863 178 24 178H792C795.866 178 798.859 174.514 801.351 171.558C803.186 169.382 805.931 168 809 168C812.069 168 814.814 169.382 816.649 171.558C819.141 174.514 822.134 178 826 178H1061C1072.31 178 1077.97 178 1081.49 174.485C1085 170.971 1085 165.314 1085 154V24C1085 12.6863 1085 7.02944 1081.49 3.51472C1077.97 0 1072.31 0 1061 0H826Z" fill="#F1F1FE"/>
<path d="M3.51472 174.485L4.22183 173.778L4.22182 173.778L3.51472 174.485ZM1081.49 174.485L1080.78 173.778L1080.78 173.778L1081.49 174.485ZM1081.49 3.51472L1080.78 4.22182L1080.78 4.22183L1081.49 3.51472ZM801.351 171.558L800.587 170.913L801.351 171.558ZM801.351 6.44204L800.587 7.08662L801.351 6.44204ZM816.649 171.558L817.413 170.913L816.649 171.558ZM816.649 6.44204L817.413 7.08662L816.649 6.44204ZM809 11C812.376 11 815.397 9.47812 817.413 7.08662L815.884 5.79747C814.232 7.75751 811.761 9 809 9V11ZM800.587 7.08662C802.603 9.47812 805.624 11 809 11V9C806.239 9 803.768 7.75751 802.116 5.79746L800.587 7.08662ZM24 1H792V-1H24V1ZM4.22183 4.22183C5.76242 2.68124 7.80911 1.85485 10.966 1.43042C14.1516 1.00212 18.3149 1 24 1V-1C18.3714 -1 14.0494 -1.00212 10.6995 -0.551743C7.32084 -0.0974946 4.78174 0.833483 2.80761 2.80761L4.22183 4.22183ZM1 24C1 18.3149 1.00212 14.1516 1.43042 10.966C1.85485 7.80911 2.68124 5.76242 4.22183 4.22183L2.80761 2.80761C0.833483 4.78174 -0.0974946 7.32084 -0.551743 10.6995C-1.00212 14.0494 -1 18.3714 -1 24H1ZM1 154V24H-1V154H1ZM4.22182 173.778C2.68124 172.238 1.85485 170.191 1.43042 167.034C1.00212 163.848 1 159.685 1 154H-1C-1 159.629 -1.00212 163.951 -0.551743 167.301C-0.0974946 170.679 0.833483 173.218 2.80761 175.192L4.22182 173.778ZM24 177C18.3149 177 14.1516 176.998 10.966 176.57C7.80911 176.145 5.76242 175.319 4.22183 173.778L2.80761 175.192C4.78174 177.167 7.32083 178.097 10.6995 178.552C14.0494 179.002 18.3714 179 24 179V177ZM792 177H24V179H792V177ZM802.116 172.203C803.768 170.242 806.239 169 809 169V167C805.624 167 802.603 168.522 800.587 170.913L802.116 172.203ZM809 169C811.761 169 814.232 170.242 815.884 172.203L817.413 170.913C815.397 168.522 812.376 167 809 167V169ZM1061 177H826V179H1061V177ZM1080.78 173.778C1079.24 175.319 1077.19 176.145 1074.03 176.57C1070.85 176.998 1066.69 177 1061 177V179C1066.63 179 1070.95 179.002 1074.3 178.552C1077.68 178.097 1080.22 177.167 1082.19 175.192L1080.78 173.778ZM1084 154C1084 159.685 1084 163.848 1083.57 167.034C1083.15 170.191 1082.32 172.238 1080.78 173.778L1082.19 175.192C1084.17 173.218 1085.1 170.679 1085.55 167.301C1086 163.951 1086 159.629 1086 154H1084ZM1084 24V154H1086V24H1084ZM1080.78 4.22183C1082.32 5.76242 1083.15 7.80911 1083.57 10.966C1084 14.1516 1084 18.3149 1084 24H1086C1086 18.3714 1086 14.0494 1085.55 10.6995C1085.1 7.32083 1084.17 4.78173 1082.19 2.80761L1080.78 4.22183ZM1061 1C1066.69 1 1070.85 1.00212 1074.03 1.43042C1077.19 1.85485 1079.24 2.68123 1080.78 4.22182L1082.19 2.80762C1080.22 0.833484 1077.68 -0.0974946 1074.3 -0.551743C1070.95 -1.00212 1066.63 -1 1061 -1V1ZM826 1H1061V-1H826V1ZM792 179C794.249 179 796.181 177.983 797.818 176.667C799.448 175.355 800.879 173.67 802.116 172.203L800.587 170.913C799.332 172.402 798.02 173.937 796.564 175.108C795.115 176.274 793.617 177 792 177V179ZM802.116 5.79746C800.879 4.33041 799.448 2.64472 797.818 1.3334C796.181 0.0167863 794.249 -1 792 -1V1C793.617 1 795.115 1.72639 796.564 2.89187C798.02 4.06265 799.332 5.59797 800.587 7.08662L802.116 5.79746ZM815.884 172.203C817.121 173.67 818.552 175.355 820.182 176.667C821.819 177.983 823.751 179 826 179V177C824.383 177 822.885 176.274 821.436 175.108C819.98 173.937 818.668 172.402 817.413 170.913L815.884 172.203ZM817.413 7.08662C818.668 5.59797 819.98 4.06265 821.436 2.89187C822.885 1.72639 824.383 1 826 1V-1C823.751 -1 821.819 0.0167866 820.182 1.3334C818.552 2.64472 817.121 4.33041 815.884 5.79747L817.413 7.08662Z" fill="#4848F7" mask="url(#path-1-inside-1_21_262)"/>
</svg>
