<svg width="20" height="21" viewBox="0 0 20 21" fill="none" xmlns="http://www.w3.org/2000/svg">
<path d="M7 3.03906C7 2.76292 7.22386 2.53906 7.5 2.53906H12.5C12.7761 2.53906 13 2.76292 13 3.03906V5.50061H15.5C15.7761 5.50061 16 5.72447 16 6.00061V10.0636L17.6341 10.5187C17.7768 10.5584 17.8944 10.6593 17.9555 10.7942C18.0165 10.929 18.0147 11.084 17.9505 11.2174L16.1261 15.0052C15.8672 14.7133 15.4978 14.5262 15.0893 14.5029C14.437 14.4657 13.8363 14.8549 13.6031 15.4642C13.6018 15.4673 13.5985 15.4753 13.5932 15.4875C13.5812 15.5149 13.5597 15.5621 13.5285 15.6222C13.4644 15.7459 13.3694 15.9047 13.2468 16.056C12.9881 16.3752 12.7491 16.5005 12.5078 16.5005C12.2674 16.5005 12.025 16.3743 11.7614 16.0502C11.637 15.8971 11.5405 15.7365 11.4751 15.6115C11.4434 15.5508 11.4214 15.5031 11.4091 15.4752C11.4036 15.4626 11.4003 15.4548 11.399 15.4516C11.1752 14.8734 10.6182 14.4916 9.99743 14.4927C9.37665 14.4937 8.82115 14.877 8.59934 15.4559C8.59805 15.4591 8.5947 15.4672 8.58926 15.4797C8.57715 15.5075 8.55542 15.555 8.52399 15.6156C8.45929 15.7403 8.36369 15.9004 8.24028 16.0529C7.97926 16.3754 7.73929 16.5005 7.49996 16.5005C7.25876 16.5005 7.01974 16.3752 6.76099 16.056C6.63838 15.9047 6.54346 15.7459 6.47926 15.6221C6.44809 15.5621 6.42657 15.5149 6.4146 15.4875C6.4093 15.4753 6.40602 15.4673 6.40473 15.4641C6.17189 14.8559 5.57257 14.4668 4.92127 14.5028C4.49467 14.5263 4.11031 14.7286 3.84963 15.0425L2.04759 11.2133C1.98491 11.0801 1.98411 10.926 2.04542 10.7922C2.10673 10.6583 2.22391 10.5583 2.36572 10.5188L4 10.0631V6.00061C4 5.72447 4.22386 5.50061 4.5 5.50061H7V3.03906ZM12 3.53906H8V5.50061H12V3.53906ZM15 9.78509V6.50061H5V9.78433L9.19077 8.61595C9.71757 8.46907 10.2745 8.469 10.8013 8.61573L15 9.78509ZM11.399 15.4516C11.3982 15.4495 11.3985 15.4504 11.3985 15.4504L11.399 15.4516ZM11.399 15.4516L11.4007 15.456L11.4019 15.4591L11.399 15.4516ZM15.4878 15.8897L15.4854 15.8805C15.4327 15.6684 15.2481 15.5144 15.0298 15.5014C14.8109 15.4883 14.6089 15.6197 14.5318 15.8249L14.5275 15.8356C14.5233 15.8461 14.5162 15.8633 14.5062 15.886C14.4863 15.9317 14.455 15.9995 14.412 16.082C14.3254 16.2483 14.1946 16.468 14.0182 16.6852C13.6607 17.1252 13.1639 17.5005 12.5 17.5005C11.8358 17.5005 11.3375 17.1249 10.9784 16.6845C10.8012 16.4672 10.6698 16.2474 10.5826 16.081C10.5394 15.9984 10.5079 15.9306 10.4878 15.8849C10.4777 15.8621 10.4706 15.845 10.4663 15.8345L10.4615 15.8225C10.3875 15.6282 10.201 15.5 9.99302 15.5005C9.78472 15.501 9.59845 15.6309 9.52567 15.8261L9.52146 15.8367C9.51724 15.8473 9.51021 15.8644 9.50032 15.8871C9.48049 15.9327 9.4494 16.0005 9.40666 16.083C9.32057 16.2492 9.19051 16.4688 9.01478 16.6859C8.65885 17.1255 8.16364 17.5005 7.49996 17.5005C6.83605 17.5005 6.33929 17.1252 5.98178 16.6852C5.80532 16.468 5.67456 16.2483 5.58795 16.082C5.54495 15.9995 5.51365 15.9317 5.49368 15.886C5.48372 15.8632 5.47663 15.8461 5.47238 15.8356L5.46812 15.8249L5.46764 15.8236C5.39042 15.6194 5.18958 15.4889 4.97152 15.5013C4.75314 15.5137 4.56821 15.6667 4.51499 15.8788L4.51528 15.8777L4.51279 15.8867C4.51013 15.896 4.50546 15.9119 4.49855 15.9334C4.48471 15.9765 4.4621 16.0414 4.42905 16.1207C4.3624 16.2807 4.25642 16.4919 4.09998 16.7005C3.79323 17.1095 3.30357 17.5005 2.5 17.5005C2.22386 17.5005 2 17.7244 2 18.0005C2 18.2766 2.22386 18.5005 2.5 18.5005C3.69643 18.5005 4.45675 17.8915 4.89998 17.3005C4.95076 17.2328 4.99751 17.1652 5.0405 17.0987C5.09139 17.1701 5.14641 17.2429 5.20567 17.3158C5.66067 17.8758 6.41391 18.5005 7.49996 18.5005C8.58632 18.5005 9.33827 17.8755 9.79198 17.3151C9.86686 17.2226 9.93494 17.1304 9.99644 17.0409C10.0587 17.1308 10.1276 17.2235 10.2034 17.3165C10.6596 17.8761 11.4142 18.5005 12.5 18.5005C13.5861 18.5005 14.3393 17.8758 14.7943 17.3158C14.8521 17.2446 14.9059 17.1736 14.9558 17.1039C14.9988 17.1712 15.0456 17.2395 15.0966 17.3079C15.5397 17.9036 16.3028 18.5148 17.506 18.5005C17.7821 18.4972 18.0033 18.2707 18 17.9945C17.9967 17.7184 17.7702 17.4972 17.494 17.5005C16.6911 17.5101 16.2042 17.1213 15.8988 16.711C15.7429 16.5015 15.6374 16.2884 15.5711 16.1267C15.5382 16.0465 15.5157 15.9808 15.502 15.9371C15.4951 15.9154 15.4905 15.8992 15.4878 15.8897Z" fill="#2D1C5B"/>
</svg>
