<svg width="18" height="18" viewBox="0 0 18 18" fill="none" xmlns="http://www.w3.org/2000/svg">
<path d="M11.7803 2.21967C11.4874 1.92678 11.0126 1.92678 10.7197 2.21967C10.4268 2.51256 10.4268 2.98744 10.7197 3.28033L12.4393 5H3.75C3.33579 5 3 5.33579 3 5.75C3 6.16421 3.33579 6.5 3.75 6.5H12.4393L10.7197 8.21967C10.4268 8.51256 10.4268 8.98744 10.7197 9.28033C11.0126 9.57322 11.4874 9.57322 11.7803 9.28033L14.7803 6.28033C15.0732 5.98744 15.0732 5.51256 14.7803 5.21967L11.7803 2.21967ZM7.28033 9.78033C7.57322 9.48744 7.57322 9.01256 7.28033 8.71967C6.98744 8.42678 6.51256 8.42678 6.21967 8.71967L3.21967 11.7197C3.07902 11.8603 3 12.0511 3 12.25C3 12.4489 3.07902 12.6397 3.21967 12.7803L6.21967 15.7803C6.51256 16.0732 6.98744 16.0732 7.28033 15.7803C7.57322 15.4874 7.57322 15.0126 7.28033 14.7197L5.56066 13H14.25C14.6642 13 15 12.6642 15 12.25C15 11.8358 14.6642 11.5 14.25 11.5H5.56066L7.28033 9.78033Z" fill="#2D1C5B"/>
</svg>
