<svg width="22" height="22" viewBox="0 0 22 22" fill="none" xmlns="http://www.w3.org/2000/svg">
<path d="M8.25002 10.9999C8.25002 11.5062 7.83961 11.9166 7.33335 11.9166C6.82709 11.9166 6.41669 11.5062 6.41669 10.9999C6.41669 10.4937 6.82709 10.0833 7.33335 10.0833C7.83961 10.0833 8.25002 10.4937 8.25002 10.9999Z" fill="#2D1C5B"/>
<path d="M11.9167 10.9999C11.9167 11.5062 11.5063 11.9166 11 11.9166C10.4938 11.9166 10.0834 11.5062 10.0834 10.9999C10.0834 10.4937 10.4938 10.0833 11 10.0833C11.5063 10.0833 11.9167 10.4937 11.9167 10.9999Z" fill="#2D1C5B"/>
<path d="M15.5834 10.9999C15.5834 11.5062 15.1729 11.9166 14.6667 11.9166C14.1604 11.9166 13.75 11.5062 13.75 10.9999C13.75 10.4937 14.1604 10.0833 14.6667 10.0833C15.1729 10.0833 15.5834 10.4937 15.5834 10.9999Z" fill="#2D1C5B"/>
<path d="M11 20.1666C16.0626 20.1666 20.1667 16.0625 20.1667 10.9999C20.1667 5.93731 16.0626 1.83325 11 1.83325C5.93741 1.83325 1.83335 5.93731 1.83335 10.9999C1.83335 12.4663 2.17767 13.8522 2.78986 15.0814C2.95255 15.408 3.0067 15.7813 2.91238 16.1338L2.36641 18.1743C2.1294 19.0602 2.93978 19.8705 3.82559 19.6335L5.86612 19.0876C6.21863 18.9932 6.59196 19.0474 6.91859 19.2101C8.14769 19.8223 9.53365 20.1666 11 20.1666Z" stroke="#2D1C5B" stroke-width="1.5"/>
</svg>
