<svg width="22" height="22" viewBox="0 0 22 22" fill="none" xmlns="http://www.w3.org/2000/svg">
<path d="M17.4167 8.89535V8.24992C17.4167 4.70609 14.5438 1.83325 11 1.83325C7.45619 1.83325 4.58335 4.70609 4.58335 8.24992V8.89535C4.58335 9.66992 4.35408 10.4272 3.92442 11.0716L2.87153 12.651C1.90983 14.0935 2.64401 16.0543 4.31666 16.5105C8.69233 17.7039 13.3077 17.7039 17.6834 16.5105C19.356 16.0543 20.0902 14.0935 19.1285 12.651L18.0756 11.0716C17.646 10.4272 17.4167 9.66992 17.4167 8.89535Z" stroke="#2D1C5B" stroke-width="1.5"/>
<path d="M6.875 17.4167C7.47544 19.0189 9.09558 20.1667 11 20.1667C12.9044 20.1667 14.5246 19.0189 15.125 17.4167" stroke="#2D1C5B" stroke-width="1.5" stroke-linecap="round"/>
</svg>
