<svg width="20" height="21" viewBox="0 0 20 21" fill="none" xmlns="http://www.w3.org/2000/svg">
<path d="M2.04236 5.25C2.04236 4.2835 2.82586 3.5 3.79236 3.5H12.2504C13.2169 3.5 14.0004 4.2835 14.0004 5.25V6.50006L14.8823 6.49994C15.4505 6.49986 15.97 6.82087 16.2241 7.32912L17.8421 10.5651C17.9462 10.7734 18.0005 11.0031 18.0005 11.2359V14.9999C18.0005 15.8283 17.3289 16.4999 16.5005 16.4999H14.9504C14.7188 17.641 13.7099 18.5 12.5004 18.5C11.2909 18.5 10.282 17.6411 10.0504 16.5H8.95036C8.71872 17.6411 7.70985 18.5 6.50037 18.5C5.29089 18.5 4.28201 17.6411 4.05038 16.5H3.79236C2.82586 16.5 2.04236 15.7165 2.04236 14.75V5.25ZM14.0004 7.50006V10.4999H16.6915L15.3297 7.77633C15.245 7.60692 15.0718 7.49991 14.8824 7.49994L14.0004 7.50006ZM6.50037 14.5C5.67194 14.5 5.00037 15.1716 5.00037 16C5.00037 16.8284 5.67194 17.5 6.50037 17.5C7.32879 17.5 8.00037 16.8284 8.00037 16C8.00037 15.1716 7.32879 14.5 6.50037 14.5ZM11.0004 16C11.0004 16.8284 11.6719 17.5 12.5004 17.5C13.3288 17.5 14.0004 16.8284 14.0004 16C14.0004 15.1716 13.3288 14.5 12.5004 14.5C11.6719 14.5 11.0004 15.1716 11.0004 16Z" fill="#2D1C5B"/>
</svg>
