<svg width="20" height="20" viewBox="0 0 20 20" fill="none" xmlns="http://www.w3.org/2000/svg">
<path d="M2.04297 4.75C2.04297 3.7835 2.82647 3 3.79297 3H12.251C13.2175 3 14.001 3.7835 14.001 4.75V6.00006L14.8829 5.99994C15.4511 5.99986 15.9706 6.32087 16.2247 6.82912L17.8427 10.0651C17.9469 10.2734 18.0011 10.5031 18.0011 10.7359V14.4999C18.0011 15.3283 17.3295 15.9999 16.5011 15.9999H14.951C14.7194 17.141 13.7105 18 12.501 18C11.2915 18 10.2826 17.1411 10.051 16H8.95097C8.71933 17.1411 7.71046 18 6.50098 18C5.2915 18 4.28262 17.1411 4.05099 16H3.79297C2.82647 16 2.04297 15.2165 2.04297 14.25V4.75ZM10.051 15C10.2826 13.8589 11.2915 13 12.501 13C12.6722 13 12.8394 13.0172 13.001 13.05V4.75C13.001 4.33579 12.6652 4 12.251 4H3.79297C3.37876 4 3.04297 4.33579 3.04297 4.75V14.25C3.04297 14.6642 3.37876 15 3.79297 15H4.05099C4.28262 13.8589 5.2915 13 6.50098 13C7.71046 13 8.71933 13.8589 8.95097 15H10.051ZM14.001 13.4998C14.481 13.8604 14.8271 14.3898 14.9509 14.9999H16.5011C16.7772 14.9999 17.0011 14.776 17.0011 14.4999V10.9999H14.001V13.4998ZM14.001 9.99994H16.6921L15.3303 7.27633C15.2456 7.10692 15.0724 6.99991 14.883 6.99994L14.001 7.00006V9.99994ZM6.50098 14C5.67255 14 5.00098 14.6716 5.00098 15.5C5.00098 16.3284 5.67255 17 6.50098 17C7.3294 17 8.00098 16.3284 8.00098 15.5C8.00098 14.6716 7.3294 14 6.50098 14ZM11.001 15.5C11.001 16.3284 11.6725 17 12.501 17C13.3294 17 14.001 16.3284 14.001 15.5C14.001 14.6716 13.3294 14 12.501 14C11.6725 14 11.001 14.6716 11.001 15.5Z" fill="#2D1C5B"/>
</svg>
